<svg width="32" height="32" viewBox="0 0 32 32" fill="none" xmlns="http://www.w3.org/2000/svg">
  <rect width="32" height="32" rx="7" fill="#4A6741"/>
  <!-- Stem -->
  <path d="M16 14V25" stroke="white" stroke-width="2.5" stroke-linecap="round"/>
  <!-- Left leaf -->
  <path d="M16 18C12.5 18 8.5 16 7 11C6 8 9.5 6 13.5 10.5C14.5 11.5 16 14 16 14" fill="white" opacity="0.9"/>
  <!-- Right leaf -->
  <path d="M16 18C19.5 18 23.5 16 25 11C26 8 22.5 6 18.5 10.5C17.5 11.5 16 14 16 14" fill="white" opacity="0.9"/>
  <!-- Top leaf -->
  <path d="M16 14C14.5 10 14 5 16 3C18 5 17.5 10 16 14" fill="white"/>
</svg>
