<svg width="100" height="100" viewBox="0 0 100 100" fill="none" xmlns="http://www.w3.org/2000/svg">
  <path d="M50 75C50 75 45 82 38 82M50 75C50 75 55 82 62 82M50 75C50 65 58 55 68 48C78 41 78 32 68 28C58 24 50 35 50 45M50 75C50 65 42 55 32 48C22 41 22 32 32 28C42 24 50 35 50 45M50 45C50 35 56 22 50 15C44 22 50 35 50 45M35 88C38 88 42 85 45 80M65 88C62 88 58 85 55 80M48 85C48 90 45 92 42 92M52 85C52 90 55 92 58 92"
    stroke="#4A6741"
    stroke-width="3"
    stroke-linecap="round"
    stroke-linejoin="round"/>
  <path d="M50 45V75" stroke="#4A6741" stroke-width="3" stroke-linecap="round"/>
</svg>
